<svg xmlns="http://www.w3.org/2000/svg" viewBox="0 0 24 24" fill="none" stroke="currentColor" stroke-width="2" stroke-linecap="round" stroke-linejoin="round">
  <path d="M2 12a5 5 0 0 0 5 5 8 8 0 0 1 5 2 8 8 0 0 1 5-2 5 5 0 0 0 5-5c0-8-7-9-10-3-3-6-10-5-10 3Z" fill="#00A0FF" stroke="#00A0FF"/>
  <path d="M12 5.5C8.5 2 2 3 2 9c0 3.03 2.11 5.5 5 5.5" stroke="#00A0FF"/>
  <path d="M12 5.5C15.5 2 22 3 22 9c0 3.03-2.11 5.5-5 5.5" stroke="#00A0FF"/>
  <!-- Game controller symbol -->
  <rect x="10" y="11" width="4" height="2" rx="0.5" fill="#FFFFFF" stroke="none"/>
  <circle cx="15" cy="11" r="0.6" fill="#FFFFFF" stroke="none"/>
  <circle cx="17" cy="11" r="0.6" fill="#FFFFFF" stroke="none"/>
</svg>